# xmcd
#
# Track frame offsets:
#  150
#  32572
#  52047
#  66260
#  80270
#  107945
#  125385
#  139812
#  154432
#  166457
#  180695
#
# Disc length: 2545 seconds
#
# Revision: 0
# Processed by: cddbd v1.4PL0 Copyright (c) Steve Scherf et al.
# Submitted via: AltoMP3_Maker 3.0
#
DISCID=9a09ef0b
DTITLE=Mahalia Jackson - Greatest Hits
DYEAR=1900
DGENRE=
TTITLE0=The Upper Room
TTITLE1=It Is No Secret (What God Can Do)
TTITLE2=Then The Answer Came
TTITLE3=That's What He's Done For Me
TTITLE4=Move On Up A Little Higher
TTITLE5=When The Saints Go Marching In
TTITLE6=Danny Boy
TTITLE7=Put A Little Love In Your Heart
TTITLE8=Tough You're Reeling And Rocking
TTITLE9=Go Tell It On The Mountain
TTITLE10=Nobody But Jesus
EXTD=
EXTT0=
EXTT1=
EXTT2=
EXTT3=
EXTT4=
EXTT5=
EXTT6=
EXTT7=
EXTT8=
EXTT9=
EXTT10=
PLAYORDER=
